<?xml version="1.0" encoding="UTF-8" standalone="no"?>
<svg width="160px" height="160px" viewBox="0 0 160 160" version="1.1" xmlns="http://www.w3.org/2000/svg" xmlns:xlink="http://www.w3.org/1999/xlink">
    <!-- Generator: Sketch 3.6.1 (26313) - http://www.bohemiancoding.com/sketch -->
    <title>BID_ICONS_DNA_150x150</title>
    <desc>Created with Sketch.</desc>
    <defs></defs>
    <g id="Assets" stroke="none" stroke-width="1" fill="none" fill-rule="evenodd">
        <g id="BID_ICONS_DNA_150x150" fill="#5081BE">
            <path d="M148.075516,111.363636 L113.743152,111.363636 C112.683445,111.363636 111.818668,112.203139 111.818668,113.239562 L111.818668,122.218438 C111.818668,123.251407 112.683445,124.090909 113.743152,124.090909 L148.075516,124.090909 C149.135223,124.090909 150,123.251407 150,122.218438 L150,113.239562 C150,112.203139 149.135223,111.363636 148.075516,111.363636 L148.075516,111.363636 Z M46.2568485,111.363636 L11.9244837,111.363636 C10.8647772,111.363636 10,112.203139 10,113.239562 L10,122.218438 C10,123.251407 10.8647772,124.090909 11.9244837,124.090909 L46.2568485,124.090909 C47.316555,124.090909 48.1813322,123.251407 48.1813322,122.218438 L48.1813322,113.239562 C48.1813322,112.203139 47.316555,111.363636 46.2568485,111.363636 L46.2568485,111.363636 Z M97.1670732,85.9090909 L62.8347086,85.9090909 C61.7750018,85.9090909 60.9102248,86.7485933 60.9102248,87.7850162 L60.9102248,96.7638929 C60.9102248,97.7968613 61.7750018,98.6363636 62.8347086,98.6363636 L97.1670732,98.6363636 C98.22678,98.6363636 99.091557,97.7968613 99.091557,96.7638929 L99.091557,87.7850162 C99.091557,86.7485933 98.22678,85.9090909 97.1670732,85.9090909 L97.1670732,85.9090909 Z M46.2568485,85.9090909 L11.9244837,85.9090909 C10.8647772,85.9090909 10,86.7485933 10,87.7850162 L10,96.7638929 C10,97.7968613 10.8647772,98.6363636 11.9244837,98.6363636 L46.2568485,98.6363636 C47.316555,98.6363636 48.1813322,97.7968613 48.1813322,96.7638929 L48.1813322,87.7850162 C48.1813322,86.7485933 47.316555,85.9090909 46.2568485,85.9090909 L46.2568485,85.9090909 Z M148.075516,60.4440073 L113.739607,60.4440073 C112.679901,60.4440073 111.818668,61.2835098 111.818668,62.3199326 L111.818668,71.2988094 C111.818668,72.3317775 112.679901,73.17128 113.743152,73.17128 L148.075516,73.17128 C149.135223,73.17128 150,72.3317775 150,71.2988094 L150,62.3199326 C150,61.2835098 149.135223,60.4440073 148.075516,60.4440073 L148.075516,60.4440073 Z M97.1670732,60.4545455 L62.8347086,60.4545455 C61.7750018,60.4545455 60.9102248,61.294048 60.9102248,62.3304708 L60.9102248,71.3093475 C60.9102248,72.3423156 61.7750018,73.1818182 62.8347086,73.1818182 L97.1670732,73.1818182 C98.22678,73.1818182 99.091557,72.3423156 99.091557,71.3093475 L99.091557,62.3304708 C99.091557,61.294048 98.22678,60.4545455 97.1670732,60.4545455 L97.1670732,60.4545455 Z M148.075516,35 L113.743152,35 C112.683445,35 111.818668,35.8395025 111.818668,36.8759254 L111.818668,45.8548021 C111.818668,46.8877702 112.683445,47.7272727 113.743152,47.7272727 L148.075516,47.7272727 C149.135223,47.7272727 150,46.8877702 150,45.8548021 L150,36.8759254 C150,35.8395025 149.135223,35 148.075516,35 L148.075516,35 Z M46.2568485,35 L11.9244837,35 C10.8647772,35 10,35.8395025 10,36.8759254 L10,45.8548021 C10,46.8877702 10.8647772,47.7272727 11.9244837,47.7272727 L46.2568485,47.7272727 C47.316555,47.7272727 48.1813322,46.8877702 48.1813322,45.8548021 L48.1813322,36.8759254 C48.1813322,35.8395025 47.316555,35 46.2568485,35 L46.2568485,35 Z" id="DNA"></path>
        </g>
    </g>
</svg>